<?xml version="1.0" encoding="UTF-8"?>
<svg width="161px" height="36px" viewBox="0 0 161 36" version="1.1" xmlns="http://www.w3.org/2000/svg" xmlns:xlink="http://www.w3.org/1999/xlink">
    <!-- Generator: Sketch 61.2 (89653) - https://sketch.com -->
    <title>new-logoMedicBleep</title>
    <desc>Created with Sketch.</desc>
    <g id="Page-1" stroke="none" stroke-width="1" fill="none" fill-rule="evenodd">
        <g id="PPE-Overview" transform="translate(-43.000000, -14.000000)" fill-rule="nonzero">
            <g id="new-logoMedicBleep" transform="translate(43.000000, 14.000000)">
                <path d="M42.3973902,20.0167159 C43.9173565,18.112276 44.7519219,15.7764994 44.7731381,13.3674867 C44.7479313,5.98421199 36.7258434,0.0017408273 26.7754297,0.0017408273 C22.729767,-0.0490197652 18.7517107,1.01124356 15.3,3.06026391 C16.8087085,2.7868235 18.3402667,2.6496234 19.8750477,2.65042182 C30.5879694,2.65042182 39.2276257,9.2323635 39.2276257,17.3313326 C39.1811001,20.5284662 37.886037,23.5892587 35.6041375,25.8951973 C37.8727562,27.5651509 41.4773393,29.7 45,29.7 C42.4793125,27.3999906 42.3154679,22.3044912 42.378485,19.9616625 L42.3973902,20.0167159 Z" id="Path" fill="#00A778"></path>
                <path d="M17.5623158,7.34984584 C26.1833684,7.34984584 33.2218421,12.6458787 33.2218421,19.1558479 C33.2218421,25.6658171 26.1956842,30.9555601 17.5623158,30.9555601 C15.7342309,30.9606341 13.9137381,30.7152398 12.1495263,30.2259404 L11.2504737,29.9743474 L10.5053684,30.5530113 C9.16710094,31.6113773 7.70709858,32.4985425 6.15789474,33.1947379 C6.54939391,31.7747763 6.78687308,30.3151553 6.86605263,28.8421788 L6.93994737,27.8169373 L6.15789474,27.2068243 C3.42378947,25.0053854 1.91510526,22.1435149 1.91510526,19.1495581 C1.91510526,12.6395889 8.94126316,7.34355601 17.5746316,7.34355601 M17.5746316,5.4 C7.86363158,5.40628983 0,11.557739 0,19.1495581 C0,22.8731346 1.89663158,26.2570606 4.96942105,28.728962 C4.79084211,31.2448921 4.19352632,34.3394861 2.46315789,36 C5.90542105,36 9.42157895,33.804851 11.6445789,32.0940185 C13.5713057,32.6289131 15.5595383,32.897575 17.5561579,32.8928263 C27.261,32.8991161 35.1,26.747667 35.1,19.1495581 C35.1,11.5514491 27.261,5.40628983 17.5623158,5.40628983 L17.5746316,5.4 Z" id="Shape" fill="#00A5D7"></path>
                <polygon id="Path" fill="#00A778" points="15.9122905 24.3 19.1877095 24.3 19.1877095 20.9603165 22.5 20.9603165 22.5 17.7396835 19.1877095 17.7396835 19.1877095 14.4 15.9122905 14.4 15.9122905 17.7396835 12.6 17.7396835 12.6 20.9665823 15.9122905 20.9665823"></polygon>
                <path d="M57.3321716,23.4 L52.705496,10.6791519 L52.6331099,10.6791519 C52.7215818,11.6883392 52.7658177,12.8883392 52.7658177,14.2791519 L52.7658177,23.4 L51.3,23.4 L51.3,9.00636042 L53.7128686,9.00636042 L58.0017426,20.8558304 L58.0741287,20.8558304 L62.4293566,9 L64.8,9 L64.8,23.4 L63.2135389,23.4 L63.2135389,14.1201413 C63.2135389,13.0600707 63.2577748,11.9067138 63.3462466,10.6600707 L63.2738606,10.6600707 L58.610992,23.4 L57.3321716,23.4 Z" id="Path" fill="#1C3A6A"></path>
                <path d="M73.5092281,23.3931387 C72.1172243,23.4659805 70.7593832,22.9561578 69.7759041,21.9914035 C68.8139662,20.9153431 68.3233513,19.5133533 68.4097468,18.0874479 C68.3271297,16.6493793 68.7737146,15.2298472 69.668878,14.0851249 C70.5082689,13.0996818 71.7695918,12.5519925 73.0811235,12.6034661 C74.273637,12.5545557 75.4268214,13.0252785 76.2289514,13.8883901 C77.041367,14.8382105 77.4572519,16.0522051 77.3936478,17.2882129 L77.3936478,18.3026265 L70.0843912,18.3026265 C70.0408566,19.3133949 70.3791774,20.3045464 71.0350353,21.0876531 C71.6953853,21.743692 72.6126962,22.0908111 73.5532977,22.0405872 C74.7256853,22.036292 75.8847742,21.7977777 76.9592475,21.3397196 L76.9592475,22.7476028 C76.4388699,22.9719168 75.8968523,23.1449182 75.3412639,23.2640315 C74.7366362,23.3675252 74.1228078,23.4107829 73.5092281,23.3931387 L73.5092281,23.3931387 Z M73.0685322,13.9191299 C72.2968013,13.8859819 71.5489733,14.1848367 71.022444,14.7368088 C70.4750652,15.3733684 70.1585488,16.1687914 70.1221652,16.9992587 L75.7001163,16.9992587 C75.7570698,16.1824304 75.5162113,15.3722692 75.0201855,14.712217 C74.5304293,14.1670798 73.8097268,13.8742102 73.0685322,13.9191299 L73.0685322,13.9191299 Z" id="Shape" fill="#1C3A6A"></path>
                <path d="M86.7593416,22.6727146 L86.6749516,22.6727146 C85.9533575,23.761701 84.7360267,24.3765245 83.4681305,24.2923474 C82.2621336,24.3634788 81.0957623,23.8318999 80.3276158,22.861044 C79.5178634,21.6836852 79.1238897,20.2509637 79.2124619,18.8056842 C79.1228367,17.3437256 79.5187004,15.8941386 80.3336437,14.7001032 C81.0874096,13.7249156 82.2433285,13.1836637 83.4440191,13.2436892 C84.6928891,13.1741816 85.8914565,13.7640846 86.6327566,14.8131009 L86.7533138,14.8131009 L86.6870073,14.0723386 L86.6508402,13.3252986 L86.6508402,9 L88.2,9 L88.2,24.1165733 L86.9401774,24.1165733 L86.7593416,22.6727146 Z M83.6670499,22.9426534 C84.5241079,23.0247933 85.3701547,22.6940895 85.9636642,22.0449499 C86.5079692,21.1917115 86.7586897,20.171612 86.6749516,19.1509548 L86.6749516,18.8119618 C86.6749516,17.3053266 86.4338372,16.2297565 85.9516085,15.5852514 C85.3747699,14.897064 84.5166611,14.5377301 83.6429384,14.6184938 C82.8105813,14.577179 82.018593,14.9943504 81.5572991,15.717082 C81.0187249,16.6638542 80.7666486,17.7576959 80.833956,18.8559054 C80.7633637,19.9337031 81.0138667,21.0079296 81.5512713,21.9319523 C82.0385986,22.6167219 82.8261939,22.9972908 83.6429384,22.9426534 L83.6670499,22.9426534 Z" id="Shape" fill="#1C3A6A"></path>
                <path d="M91.8040469,10.0548294 C91.7789784,9.76336664 91.8711707,9.47416002 92.0584664,9.25671772 C92.4193237,8.91442743 92.9697062,8.91442743 93.3305635,9.25671772 C93.5224871,9.46940094 93.6192357,9.75716341 93.5968164,10.0486425 C93.6187028,10.3419071 93.5221421,10.6313546 93.3305635,10.8467543 C92.9730463,11.1979766 92.4159835,11.1979766 92.0584664,10.8467543 C91.8745739,10.6297139 91.7827651,10.3439429 91.8040469,10.0548294 L91.8040469,10.0548294 Z M93.4488981,23.4 L91.9282983,23.4 L91.9282983,12.8822485 L93.4488981,12.8822485 L93.4488981,23.4 Z" id="Shape" fill="#1C3A6A"></path>
                <path d="M100.849416,23.3922163 C99.587286,23.4701561 98.357174,22.9597076 97.4920097,21.9990235 C96.6433458,20.8860073 96.2233243,19.4833364 96.3139724,18.0649419 C96.2160278,16.615472 96.6355754,15.179411 97.4920097,14.0326616 C98.3772603,13.0469505 99.6387848,12.5247622 100.931879,12.6087818 C101.415028,12.6085995 101.89682,12.6620927 102.369084,12.7683546 C102.759957,12.8449557 103.139951,12.9728122 103.5,13.1488742 L103.034675,14.4868302 C102.680841,14.342121 102.316446,14.2271881 101.944991,14.143135 C101.601229,14.0587039 101.249683,14.0134307 100.896538,14.008112 C98.8703134,14.008112 97.8572013,15.3542512 97.8572013,18.0465296 C97.7932133,19.0842876 98.0536001,20.1157188 98.5993648,20.9863504 C99.1306631,21.6817205 99.9574901,22.0584967 100.808185,21.9928861 C101.687152,21.982702 102.555665,21.792951 103.364526,21.4343816 L103.364526,22.8521239 C102.57943,23.2383877 101.71711,23.4235614 100.849416,23.3922163 L100.849416,23.3922163 Z" id="Path" fill="#1C3A6A"></path>
                <path d="M111.6,9 L115.638569,9 C117.537582,9 118.911202,9.28401353 119.759428,9.8520406 C120.626309,10.4655522 121.107364,11.4923908 121.025437,12.5544082 C121.055615,13.3217194 120.803209,14.0732877 120.316472,14.6654342 C119.772768,15.2657664 119.034941,15.6532345 118.233887,15.7590982 L118.233887,15.8544759 C120.407203,16.2275086 121.493861,17.3741603 121.493861,19.2944309 C121.559783,20.4400558 121.091972,21.5514035 120.227852,22.302007 C119.18079,23.0854333 117.891168,23.4706804 116.588076,23.3893126 L111.6,23.3893126 L111.6,9 Z M113.264802,15.123247 L116.005711,15.123247 C116.885737,15.1963995 117.767452,15.0037641 118.53773,14.5700565 C119.092341,14.1146987 119.382416,13.4101345 119.309995,12.6942954 C119.361477,11.9991737 119.031409,11.3311922 118.449109,10.9520632 C117.598176,10.5348652 116.652707,10.3506238 115.708199,10.4179482 L113.264802,10.4179482 L113.264802,15.123247 Z M113.264802,16.5411952 L113.264802,21.9204963 L116.246253,21.9204963 C117.166727,21.9957958 118.086595,21.7681426 118.866892,21.2719281 C119.481985,20.7524336 119.807701,19.9653022 119.740438,19.1609021 C119.803542,18.3989042 119.47391,17.6574961 118.866892,17.1961219 C118.04095,16.715618 117.090836,16.4941824 116.138642,16.5602707 L113.264802,16.5411952 Z" id="Shape" fill="#1C3A6A"></path>
                <polygon id="Path" fill="#1C3A6A" points="126 23.4 124.2 23.4 124.2 8.1 126 8.1"></polygon>
                <path d="M133.802641,23.3931387 C132.412432,23.4659805 131.056341,22.9561578 130.07413,21.9914035 C129.113432,20.9153431 128.62345,19.5133533 128.709734,18.0874479 C128.627224,16.6493793 129.073233,15.2298472 129.967242,14.0851249 C130.805551,13.0996818 132.065248,12.5519925 133.375088,12.6034661 C134.566064,12.5545557 135.717762,13.0252785 136.518858,13.8883901 C137.333244,14.8348156 137.753052,16.046523 137.694628,17.2820649 L137.694628,18.3026265 L130.38222,18.3026265 C130.338741,19.3133949 130.676626,20.3045464 131.331638,21.0876531 C131.991137,21.743692 132.907265,22.0908111 133.846654,22.0405872 C135.01753,22.036292 136.175124,21.7977777 137.248212,21.3397196 L137.248212,22.7476028 C136.728506,22.9719168 136.187187,23.1449182 135.632315,23.2640315 C135.028467,23.3675252 134.41543,23.4107829 133.802641,23.3931387 Z M133.362513,13.9191299 C132.591777,13.8859819 131.844913,14.1848367 131.319063,14.7368088 C130.77239,15.3733684 130.456282,16.1687914 130.419945,16.9992587 L135.990705,16.9992587 C136.047585,16.1824304 135.807037,15.3722692 135.31165,14.712217 C134.823911,14.1688445 134.106886,13.8761492 133.368801,13.9191299 L133.362513,13.9191299 Z" id="Shape" fill="#1C3A6A"></path>
                <path d="M144.602932,23.3934483 C143.213078,23.4645155 141.857891,22.954815 140.875904,21.9916728 C139.913966,20.9155816 139.423351,19.5135515 139.509747,18.0876053 C139.42713,16.6494955 139.873715,15.2299227 140.768878,14.0851675 C141.608269,13.0996961 142.869592,12.5519912 144.181123,12.6034662 C145.373637,12.5545544 146.526821,13.0252907 147.328951,13.8884271 C148.141367,14.8382746 148.557252,16.0523041 148.493648,17.2883473 L148.493648,18.3027901 L141.178096,18.3027901 C141.134561,19.3135874 141.472882,20.3047674 142.12874,21.0878966 C142.78909,21.7439543 143.706401,22.0910833 144.647002,22.0408579 C145.81939,22.0365627 146.978479,21.7980415 148.052952,21.3399702 L148.052952,22.7478938 C147.532574,22.9722142 146.990557,23.1452206 146.434968,23.2643374 C145.830341,23.367834 145.216512,23.411093 144.602932,23.3934483 L144.602932,23.3934483 Z M144.162237,13.9191678 C143.390506,13.8860188 142.642678,14.1848821 142.116148,14.7368701 C141.56877,15.3734479 141.252253,16.1688937 141.21587,16.9993849 L146.793821,16.9993849 C146.856214,16.1847752 146.622108,15.3748075 146.132777,14.7122775 C145.640256,14.1635749 144.914034,13.8703461 144.168532,13.9191678 L144.162237,13.9191678 Z" id="Shape" fill="#1C3A6A"></path>
                <path d="M155.946499,23.4038801 C155.324214,23.4100756 154.707656,23.2823992 154.13716,23.0292035 C153.582378,22.7764247 153.103618,22.3778807 152.75,21.8744623 L152.635409,21.8744623 C152.708555,22.4468246 152.746826,23.0232511 152.75,23.6004318 L152.75,27.9 L151.2,27.9 L151.2,12.7900889 L152.460506,12.7900889 L152.677627,14.2150887 L152.75,14.2150887 C153.100851,13.6908305 153.578654,13.2676951 154.13716,12.9866406 C154.705268,12.7252086 155.323175,12.5951551 155.946499,12.6058217 C157.153699,12.5381609 158.319698,13.0633925 159.082686,14.018537 C159.882355,15.1751433 160.271603,16.5745271 160.186383,17.9864242 C160.280559,19.4173361 159.884058,20.8371672 159.064593,22.0034493 C158.302376,22.9477922 157.145199,23.4675151 155.946499,23.4038801 Z M155.723347,13.9571146 C154.873519,13.876755 154.035357,14.2036667 153.455643,14.8415972 C152.920111,15.6738504 152.667943,16.6622604 152.737938,17.6547432 L152.737938,18.0048509 C152.737938,19.4667041 152.977173,20.5129324 153.455643,21.1435357 C154.030325,21.8167179 154.887087,22.168477 155.759534,22.0894407 C156.589797,22.1130327 157.37359,21.6999938 157.834243,20.9961219 C158.379932,20.0944063 158.640954,19.043944 158.582103,17.9864242 C158.648381,16.935939 158.386602,15.8910309 157.834243,15.0012954 C157.348654,14.3128303 156.554896,13.9201876 155.723347,13.9571146 L155.723347,13.9571146 Z" id="Shape" fill="#1C3A6A"></path>
            </g>
        </g>
    </g>
</svg>